<svg viewBox="0 0 32 32" xmlns="http://www.w3.org/2000/svg">
  <rect width="32" height="32" rx="6" fill="#0C0C0C"/>
  <rect x="4" y="4" width="6" height="6" fill="#E10600"/>
  <rect x="16" y="4" width="6" height="6" fill="#E10600"/>
  <rect x="10" y="10" width="6" height="6" fill="#E10600"/>
  <rect x="22" y="10" width="6" height="6" fill="#E10600"/>
  <rect x="4" y="16" width="6" height="6" fill="#E10600"/>
  <rect x="16" y="16" width="6" height="6" fill="#E10600"/>
  <rect x="10" y="22" width="6" height="6" fill="#E10600"/>
  <rect x="22" y="22" width="6" height="6" fill="#E10600"/>
  <rect x="10" y="4" width="6" height="6" fill="#2A2A2A"/>
  <rect x="22" y="4" width="6" height="6" fill="#2A2A2A"/>
  <rect x="4" y="10" width="6" height="6" fill="#2A2A2A"/>
  <rect x="16" y="10" width="6" height="6" fill="#2A2A2A"/>
  <rect x="10" y="16" width="6" height="6" fill="#2A2A2A"/>
  <rect x="22" y="16" width="6" height="6" fill="#2A2A2A"/>
  <rect x="4" y="22" width="6" height="6" fill="#2A2A2A"/>
  <rect x="16" y="22" width="6" height="6" fill="#2A2A2A"/>
</svg>
